<svg width="254" height="36" viewBox="0 0 254 36" fill="none" xmlns="http://www.w3.org/2000/svg">
<g clip-path="url(#clip0_171_7658)">
<path d="M245.605 18.7034C245.605 18.8768 245.746 19.0173 245.919 19.0173H246.224C246.872 19.0173 247.368 18.8834 247.714 18.6156C248.06 18.3478 248.233 17.9628 248.233 17.4607C248.233 16.9585 248.06 16.5736 247.714 16.3058C247.368 16.038 246.872 15.9041 246.224 15.9041H245.919C245.746 15.9041 245.605 16.0446 245.605 16.2179V18.7034ZM252.432 25.4921C252.59 25.6985 252.443 25.9969 252.183 25.9969H248.906C248.799 25.9969 248.7 25.9428 248.642 25.8531L246.183 22.0387C246.013 21.7756 245.605 21.8958 245.605 22.2088V25.6831C245.605 25.8564 245.465 25.9969 245.291 25.9969H242.638C242.465 25.9969 242.324 25.8564 242.324 25.6831V13.6905C242.324 13.5172 242.465 13.3767 242.638 13.3767H247.429C248.132 13.3767 248.746 13.4827 249.271 13.6947C249.795 13.8955 250.225 14.1745 250.559 14.5316C250.905 14.8886 251.162 15.3015 251.329 15.7702C251.508 16.2388 251.597 16.7409 251.597 17.2766C251.597 18.2362 251.363 19.0173 250.894 19.6198C250.519 20.1046 249.994 20.4619 249.319 20.6917C249.104 20.7652 249.009 21.0297 249.148 21.2105L252.432 25.4921Z" fill="#2C2C37"/>
<path d="M239.96 15.8413C239.96 16.0146 239.819 16.1551 239.646 16.1551H236.373C236.2 16.1551 236.06 16.2956 236.06 16.469V17.9502C236.06 18.1236 236.2 18.2641 236.373 18.2641H239.428C239.601 18.2641 239.742 18.4046 239.742 18.5779V20.7287C239.742 20.902 239.601 21.0425 239.428 21.0425H236.373C236.2 21.0425 236.06 21.183 236.06 21.3564V22.9046C236.06 23.0779 236.2 23.2184 236.373 23.2184H239.646C239.819 23.2184 239.96 23.3589 239.96 23.5323V25.6831C239.96 25.8564 239.819 25.9969 239.646 25.9969H233.093C232.92 25.9969 232.779 25.8564 232.779 25.6831V13.6905C232.779 13.5172 232.92 13.3767 233.093 13.3767H239.646C239.819 13.3767 239.96 13.5172 239.96 13.6905V15.8413Z" fill="#2C2C37"/>
<path d="M228.938 16.1551C228.765 16.1551 228.625 16.2956 228.625 16.469V25.6831C228.625 25.8564 228.484 25.9969 228.311 25.9969H225.658C225.484 25.9969 225.344 25.8564 225.344 25.6831V16.469C225.344 16.2956 225.203 16.1551 225.03 16.1551H222.963C222.79 16.1551 222.649 16.0146 222.649 15.8413V13.6905C222.649 13.5172 222.79 13.3767 222.963 13.3767H231.005C231.179 13.3767 231.319 13.5172 231.319 13.6905V15.8413C231.319 16.0146 231.179 16.1551 231.005 16.1551H228.938Z" fill="#2C2C37"/>
<path d="M208.901 25.9969C208.728 25.9969 208.587 25.8564 208.587 25.6831V13.6905C208.587 13.5172 208.728 13.3767 208.901 13.3767H211.715C211.812 13.3767 211.903 13.4209 211.962 13.4967L217.366 20.3788C217.55 20.6132 217.927 20.483 217.927 20.1849V13.6905C217.927 13.5172 218.068 13.3767 218.241 13.3767H220.877C221.05 13.3767 221.191 13.5172 221.191 13.6905V25.6831C221.191 25.8564 221.05 25.9969 220.877 25.9969H218.08C217.983 25.9969 217.892 25.9527 217.833 25.8769L212.429 18.9948C212.245 18.7604 211.868 18.8905 211.868 19.1886V25.6831C211.868 25.8564 211.727 25.9969 211.554 25.9969H208.901Z" fill="#2C2C37"/>
<path d="M206.222 15.8413C206.222 16.0146 206.082 16.1551 205.908 16.1551H202.636C202.463 16.1551 202.322 16.2956 202.322 16.469V17.9502C202.322 18.1236 202.463 18.2641 202.636 18.2641H205.691C205.864 18.2641 206.005 18.4046 206.005 18.5779V20.7287C206.005 20.902 205.864 21.0425 205.691 21.0425H202.636C202.463 21.0425 202.322 21.183 202.322 21.3564V22.9046C202.322 23.0779 202.463 23.2184 202.636 23.2184H205.908C206.082 23.2184 206.222 23.3589 206.222 23.5323V25.6831C206.222 25.8564 206.082 25.9969 205.908 25.9969H199.356C199.182 25.9969 199.042 25.8564 199.042 25.6831V13.6905C199.042 13.5172 199.182 13.3767 199.356 13.3767H205.908C206.082 13.3767 206.222 13.5172 206.222 13.6905V15.8413Z" fill="#2C2C37"/>
<path d="M196.966 16.7162C196.966 17.011 196.577 17.1589 196.348 16.9733C195.715 16.4612 194.984 16.2052 194.155 16.2052C193.664 16.2052 193.206 16.2945 192.782 16.473C192.369 16.6515 192.012 16.897 191.711 17.2095C191.41 17.5107 191.17 17.8734 190.991 18.2974C190.824 18.7214 190.74 19.1789 190.74 19.6699C190.74 20.172 190.824 20.6351 190.991 21.0591C191.17 21.4831 191.41 21.8514 191.711 22.1638C192.023 22.4762 192.386 22.7217 192.799 22.9003C193.212 23.0788 193.658 23.1681 194.138 23.1681C194.95 23.1681 195.698 22.9007 196.383 22.3659C196.607 22.1908 196.966 22.3382 196.966 22.6227V25.4896C196.966 25.6229 196.882 25.7417 196.756 25.7858L196.632 25.8294C196.13 26.0079 195.661 26.1362 195.226 26.2143C194.791 26.3036 194.361 26.3482 193.937 26.3482C193.067 26.3482 192.23 26.1864 191.426 25.8628C190.634 25.5281 189.931 25.065 189.317 24.4736C188.715 23.8711 188.229 23.1625 187.861 22.3479C187.493 21.5222 187.309 20.6239 187.309 19.6532C187.309 18.6824 187.487 17.7953 187.844 16.9919C188.213 16.1773 188.698 15.4799 189.301 14.8996C189.914 14.3082 190.623 13.8508 191.426 13.5272C192.23 13.1924 193.072 13.025 193.954 13.025C194.456 13.025 194.947 13.0808 195.427 13.1924C195.858 13.2806 196.307 13.4163 196.773 13.5993C196.89 13.6456 196.966 13.7603 196.966 13.887V16.7162Z" fill="#2C2C37"/>
<path d="M179.311 16.2611C179.221 16.4391 178.989 16.4872 178.825 16.3743C178.571 16.2004 178.318 16.0659 178.064 15.9709C177.707 15.8258 177.361 15.7533 177.026 15.7533C176.602 15.7533 176.256 15.8537 175.989 16.0545C175.721 16.2554 175.587 16.5176 175.587 16.8412C175.587 17.0644 175.654 17.2485 175.788 17.3936C175.922 17.5386 176.095 17.6669 176.307 17.7785C176.53 17.879 176.775 17.9682 177.043 18.0463C177.322 18.1244 177.595 18.2081 177.863 18.2974C178.934 18.6545 179.715 19.1343 180.206 19.7368C180.709 20.3282 180.96 21.1038 180.96 22.0634C180.96 22.7106 180.848 23.2964 180.625 23.8208C180.413 24.3453 180.095 24.7972 179.671 25.1766C179.258 25.5448 178.745 25.8294 178.131 26.0302C177.528 26.2422 176.842 26.3482 176.072 26.3482C174.566 26.3482 173.165 25.9259 171.868 25.0811C171.734 24.9944 171.693 24.82 171.767 24.6798L172.856 22.6328C172.951 22.4535 173.189 22.411 173.348 22.5375C173.735 22.8457 174.119 23.0838 174.499 23.2518C174.979 23.4638 175.453 23.5698 175.922 23.5698C176.457 23.5698 176.853 23.447 177.11 23.2016C177.378 22.9561 177.512 22.6771 177.512 22.3647C177.512 22.175 177.478 22.0132 177.411 21.8793C177.344 21.7342 177.233 21.6059 177.076 21.4943C176.92 21.3716 176.714 21.26 176.457 21.1595C176.212 21.0591 175.91 20.9475 175.553 20.8248C175.129 20.6909 174.711 20.5458 174.298 20.3896C173.896 20.2222 173.534 20.0046 173.21 19.7368C172.898 19.469 172.641 19.1343 172.44 18.7326C172.25 18.3197 172.156 17.8009 172.156 17.176C172.156 16.5511 172.256 15.9876 172.457 15.4855C172.669 14.9722 172.959 14.537 173.327 14.1799C173.707 13.8117 174.164 13.5272 174.7 13.3263C175.246 13.1255 175.855 13.025 176.524 13.025C177.149 13.025 177.802 13.1143 178.482 13.2928C179.064 13.4359 179.626 13.6402 180.167 13.9057C180.321 13.9809 180.379 14.1678 180.301 14.32L179.311 16.2611Z" fill="#2C2C37"/>
<path d="M168.491 16.2611C168.4 16.4391 168.169 16.4872 168.004 16.3743C167.751 16.2004 167.497 16.0659 167.243 15.9709C166.886 15.8258 166.54 15.7533 166.206 15.7533C165.782 15.7533 165.436 15.8537 165.168 16.0545C164.9 16.2554 164.766 16.5176 164.766 16.8412C164.766 17.0644 164.833 17.2485 164.967 17.3936C165.101 17.5386 165.274 17.6669 165.486 17.7785C165.709 17.879 165.955 17.9682 166.222 18.0463C166.501 18.1244 166.775 18.2081 167.043 18.2974C168.114 18.6545 168.895 19.1343 169.386 19.7368C169.888 20.3282 170.139 21.1038 170.139 22.0634C170.139 22.7106 170.027 23.2964 169.804 23.8208C169.592 24.3453 169.274 24.7972 168.85 25.1766C168.437 25.5448 167.924 25.8294 167.31 26.0302C166.708 26.2422 166.022 26.3482 165.252 26.3482C163.746 26.3482 162.344 25.9259 161.047 25.0811C160.914 24.9944 160.872 24.82 160.947 24.6798L162.035 22.6328C162.13 22.4535 162.368 22.411 162.527 22.5375C162.914 22.8457 163.298 23.0838 163.678 23.2518C164.158 23.4638 164.632 23.5698 165.101 23.5698C165.637 23.5698 166.033 23.447 166.289 23.2016C166.557 22.9561 166.691 22.6771 166.691 22.3647C166.691 22.175 166.658 22.0132 166.591 21.8793C166.524 21.7342 166.412 21.6059 166.256 21.4943C166.1 21.3716 165.893 21.26 165.637 21.1595C165.391 21.0591 165.09 20.9475 164.733 20.8248C164.309 20.6909 163.89 20.5458 163.477 20.3896C163.076 20.2222 162.713 20.0046 162.39 19.7368C162.077 19.469 161.82 19.1343 161.62 18.7326C161.43 18.3197 161.335 17.8009 161.335 17.176C161.335 16.5511 161.435 15.9876 161.636 15.4855C161.848 14.9722 162.138 14.537 162.507 14.1799C162.886 13.8117 163.344 13.5272 163.879 13.3263C164.426 13.1255 165.034 13.025 165.704 13.025C166.328 13.025 166.981 13.1143 167.662 13.2928C168.244 13.4359 168.805 13.6402 169.347 13.9057C169.5 13.9809 169.558 14.1678 169.481 14.32L168.491 16.2611Z" fill="#2C2C37"/>
<path d="M159.02 15.8413C159.02 16.0146 158.88 16.1551 158.706 16.1551H155.434C155.261 16.1551 155.12 16.2956 155.12 16.469V17.9502C155.12 18.1236 155.261 18.2641 155.434 18.2641H158.489C158.662 18.2641 158.802 18.4046 158.802 18.5779V20.7287C158.802 20.902 158.662 21.0425 158.489 21.0425H155.434C155.261 21.0425 155.12 21.183 155.12 21.3564V22.9046C155.12 23.0779 155.261 23.2184 155.434 23.2184H158.706C158.88 23.2184 159.02 23.3589 159.02 23.5323V25.6831C159.02 25.8564 158.88 25.9969 158.706 25.9969H152.153C151.98 25.9969 151.84 25.8564 151.84 25.6831V13.6905C151.84 13.5172 151.98 13.3767 152.153 13.3767H158.706C158.88 13.3767 159.02 13.5172 159.02 13.6905V15.8413Z" fill="#2C2C37"/>
<path d="M149.764 16.7162C149.764 17.011 149.375 17.1589 149.145 16.9733C148.513 16.4612 147.782 16.2052 146.952 16.2052C146.461 16.2052 146.004 16.2945 145.58 16.473C145.167 16.6515 144.81 16.897 144.509 17.2095C144.207 17.5107 143.968 17.8734 143.789 18.2974C143.622 18.7214 143.538 19.1789 143.538 19.6699C143.538 20.172 143.622 20.6351 143.789 21.0591C143.968 21.4831 144.207 21.8514 144.509 22.1638C144.821 22.4762 145.184 22.7217 145.597 22.9003C146.01 23.0788 146.456 23.1681 146.936 23.1681C147.748 23.1681 148.496 22.9007 149.181 22.3659C149.405 22.1908 149.764 22.3382 149.764 22.6227V25.4895C149.764 25.6229 149.68 25.7417 149.554 25.7858L149.43 25.8294C148.927 26.0079 148.459 26.1362 148.024 26.2143C147.588 26.3036 147.159 26.3482 146.735 26.3482C145.864 26.3482 145.028 26.1864 144.224 25.8628C143.432 25.5281 142.729 25.065 142.115 24.4736C141.513 23.8711 141.027 23.1625 140.659 22.3479C140.291 21.5222 140.107 20.6239 140.107 19.6532C140.107 18.6824 140.285 17.7953 140.642 16.9919C141.011 16.1773 141.496 15.4799 142.098 14.8996C142.712 14.3082 143.421 13.8508 144.224 13.5272C145.028 13.1924 145.87 13.025 146.752 13.025C147.254 13.025 147.745 13.0808 148.224 13.1924C148.656 13.2806 149.105 13.4163 149.57 13.5993C149.688 13.6456 149.764 13.7603 149.764 13.887V16.7162Z" fill="#2C2C37"/>
<path d="M138.6 16.7162C138.6 17.011 138.21 17.1589 137.981 16.9733C137.349 16.4612 136.618 16.2052 135.788 16.2052C135.297 16.2052 134.84 16.2945 134.416 16.473C134.003 16.6515 133.646 16.897 133.345 17.2095C133.043 17.5107 132.803 17.8734 132.625 18.2974C132.458 18.7214 132.374 19.1789 132.374 19.6699C132.374 20.172 132.458 20.6351 132.625 21.0591C132.803 21.4831 133.043 21.8514 133.345 22.1638C133.657 22.4762 134.02 22.7217 134.433 22.9003C134.845 23.0788 135.292 23.1681 135.772 23.1681C136.583 23.1681 137.332 22.9007 138.017 22.3659C138.241 22.1908 138.6 22.3382 138.6 22.6227V25.4895C138.6 25.6229 138.516 25.7417 138.39 25.7858L138.266 25.8294C137.763 26.0079 137.295 26.1362 136.86 26.2143C136.424 26.3036 135.995 26.3482 135.571 26.3482C134.7 26.3482 133.864 26.1864 133.06 25.8628C132.268 25.5281 131.565 25.065 130.951 24.4736C130.349 23.8711 129.863 23.1625 129.495 22.3479C129.127 21.5222 128.943 20.6239 128.943 19.6532C128.943 18.6824 129.121 17.7953 129.478 16.9919C129.846 16.1773 130.332 15.4799 130.934 14.8996C131.548 14.3082 132.257 13.8508 133.06 13.5272C133.864 13.1924 134.706 13.025 135.587 13.025C136.09 13.025 136.581 13.0808 137.06 13.1924C137.492 13.2806 137.94 13.4163 138.406 13.5993C138.524 13.6456 138.6 13.7603 138.6 13.887V16.7162Z" fill="#2C2C37"/>
<path d="M122.986 21.3103C123.202 21.3103 123.354 21.0968 123.282 20.8927L122.252 17.9539C122.154 17.6739 121.758 17.6739 121.66 17.9539L120.629 20.8927C120.558 21.0968 120.709 21.3103 120.925 21.3103H122.986ZM124.372 24.0161C124.328 23.8894 124.209 23.8043 124.075 23.8043H119.836C119.702 23.8043 119.583 23.8894 119.54 24.0161L118.932 25.785C118.889 25.9118 118.769 25.9969 118.635 25.9969H115.816C115.597 25.9969 115.445 25.7768 115.523 25.5714L120.088 13.5789C120.134 13.4571 120.251 13.3767 120.381 13.3767H123.53C123.661 13.3767 123.777 13.4571 123.824 13.5789L128.388 25.5714C128.467 25.7768 128.315 25.9969 128.095 25.9969H125.276C125.142 25.9969 125.023 25.9118 124.979 25.785L124.372 24.0161Z" fill="#2C2C37"/>
<path d="M108 16.2611C107.909 16.4391 107.678 16.4872 107.513 16.3743C107.26 16.2004 107.006 16.0659 106.752 15.9709C106.395 15.8258 106.049 15.7533 105.715 15.7533C105.291 15.7533 104.945 15.8537 104.677 16.0545C104.409 16.2554 104.275 16.5176 104.275 16.8412C104.275 17.0644 104.342 17.2485 104.476 17.3936C104.61 17.5386 104.783 17.6669 104.995 17.7785C105.218 17.879 105.464 17.9682 105.731 18.0463C106.01 18.1244 106.284 18.2081 106.552 18.2974C107.623 18.6545 108.404 19.1343 108.895 19.7368C109.397 20.3282 109.648 21.1038 109.648 22.0634C109.648 22.7106 109.537 23.2964 109.313 23.8208C109.101 24.3453 108.783 24.7972 108.359 25.1766C107.946 25.5448 107.433 25.8294 106.819 26.0302C106.217 26.2422 105.531 26.3482 104.761 26.3482C103.255 26.3482 101.853 25.9259 100.556 25.0811C100.423 24.9944 100.381 24.82 100.456 24.6798L101.544 22.6328C101.639 22.4535 101.877 22.411 102.036 22.5375C102.423 22.8457 102.807 23.0838 103.187 23.2518C103.667 23.4638 104.141 23.5698 104.61 23.5698C105.146 23.5698 105.542 23.447 105.798 23.2016C106.066 22.9561 106.2 22.6771 106.2 22.3647C106.2 22.175 106.167 22.0132 106.1 21.8793C106.033 21.7342 105.921 21.6059 105.765 21.4943C105.609 21.3716 105.402 21.26 105.146 21.1595C104.9 21.0591 104.599 20.9475 104.242 20.8248C103.818 20.6909 103.399 20.5458 102.986 20.3896C102.585 20.2222 102.222 20.0046 101.899 19.7368C101.586 19.469 101.329 19.1343 101.129 18.7326C100.939 18.3197 100.844 17.8009 100.844 17.176C100.844 16.5511 100.944 15.9876 101.145 15.4855C101.357 14.9722 101.647 14.537 102.016 14.1799C102.395 13.8117 102.853 13.5272 103.388 13.3263C103.935 13.1255 104.543 13.025 105.213 13.025C105.837 13.025 106.49 13.1143 107.171 13.2928C107.753 13.4359 108.314 13.6402 108.856 13.9057C109.009 13.9809 109.067 14.1678 108.99 14.32L108 16.2611Z" fill="#2C2C37"/>
<path d="M97.0372 16.1551C96.8639 16.1551 96.7234 16.2956 96.7234 16.469V25.6831C96.7234 25.8564 96.5829 25.9969 96.4096 25.9969H93.7566C93.5833 25.9969 93.4428 25.8564 93.4428 25.6831V16.469C93.4428 16.2956 93.3023 16.1551 93.129 16.1551H91.0619C90.8886 16.1551 90.748 16.0146 90.748 15.8413V13.6905C90.748 13.5172 90.8886 13.3767 91.0619 13.3767H99.1043C99.2777 13.3767 99.4182 13.5172 99.4182 13.6905V15.8413C99.4182 16.0146 99.2777 16.1551 99.1043 16.1551H97.0372Z" fill="#2C2C37"/>
<path d="M88.9865 13.3767C89.1599 13.3767 89.3004 13.5172 89.3004 13.6905V25.6831C89.3004 25.8564 89.1599 25.9969 88.9865 25.9969H86.3336C86.1603 25.9969 86.0198 25.8564 86.0198 25.6831V13.6905C86.0198 13.5172 86.1603 13.3767 86.3336 13.3767H88.9865Z" fill="#2C2C37"/>
<path d="M84.0644 15.8413C84.0644 16.0146 83.9239 16.1551 83.7506 16.1551H80.4282C80.2548 16.1551 80.1143 16.2956 80.1143 16.469V17.9502C80.1143 18.1236 80.2548 18.2641 80.4282 18.2641H83.3991C83.5724 18.2641 83.7129 18.4046 83.7129 18.5779V20.7287C83.7129 20.902 83.5724 21.0425 83.3991 21.0425H80.4282C80.2548 21.0425 80.1143 21.183 80.1143 21.3564V25.6831C80.1143 25.8564 79.9738 25.9969 79.8005 25.9969H77.1476C76.9742 25.9969 76.8337 25.8564 76.8337 25.6831V13.6905C76.8337 13.5172 76.9742 13.3767 77.1476 13.3767H83.7506C83.9239 13.3767 84.0644 13.5172 84.0644 13.6905V15.8413Z" fill="#2C2C37"/>
<path d="M74.4686 15.8413C74.4686 16.0146 74.3281 16.1551 74.1547 16.1551H70.8825C70.7092 16.1551 70.5687 16.2956 70.5687 16.469V17.9502C70.5687 18.1236 70.7092 18.2641 70.8825 18.2641H73.9371C74.1105 18.2641 74.251 18.4046 74.251 18.5779V20.7287C74.251 20.902 74.1105 21.0425 73.9371 21.0425H70.8825C70.7092 21.0425 70.5687 21.183 70.5687 21.3564V22.9046C70.5687 23.0779 70.7092 23.2184 70.8825 23.2184H74.1547C74.3281 23.2184 74.4686 23.3589 74.4686 23.5323V25.6831C74.4686 25.8564 74.3281 25.9969 74.1547 25.9969H67.6019C67.4286 25.9969 67.2881 25.8564 67.2881 25.6831V13.6905C67.2881 13.5172 67.4286 13.3767 67.6019 13.3767H74.1547C74.3281 13.3767 74.4686 13.5172 74.4686 13.6905V15.8413Z" fill="#2C2C37"/>
<path d="M52.3514 25.9969C52.1781 25.9969 52.0376 25.8564 52.0376 25.6831V13.6905C52.0376 13.5172 52.1781 13.3767 52.3514 13.3767H55.1656C55.2619 13.3767 55.3529 13.4209 55.4124 13.4967L60.8166 20.3788C61.0007 20.6132 61.3772 20.483 61.3772 20.1849V13.6905C61.3772 13.5172 61.5177 13.3767 61.6911 13.3767H64.3273C64.5006 13.3767 64.6411 13.5172 64.6411 13.6905V25.6831C64.6411 25.8564 64.5006 25.9969 64.3273 25.9969H61.5298C61.4335 25.9969 61.3425 25.9527 61.283 25.8769L55.8788 18.9948C55.6948 18.7604 55.3182 18.8905 55.3182 19.1886V25.6831C55.3182 25.8564 55.1777 25.9969 55.0044 25.9969H52.3514Z" fill="#2C2C37"/>
<path d="M49.6724 15.8413C49.6724 16.0146 49.5319 16.1551 49.3586 16.1551H46.0864C45.913 16.1551 45.7725 16.2956 45.7725 16.469V17.9502C45.7725 18.1236 45.913 18.2641 46.0864 18.2641H49.141C49.3143 18.2641 49.4548 18.4046 49.4548 18.5779V20.7287C49.4548 20.902 49.3143 21.0425 49.141 21.0425H46.0864C45.913 21.0425 45.7725 21.183 45.7725 21.3564V22.9046C45.7725 23.0779 45.913 23.2184 46.0864 23.2184H49.3586C49.5319 23.2184 49.6724 23.3589 49.6724 23.5323V25.6831C49.6724 25.8564 49.5319 25.9969 49.3586 25.9969H42.8058C42.6325 25.9969 42.4919 25.8564 42.4919 25.6831V13.6905C42.4919 13.5172 42.6325 13.3767 42.8058 13.3767H49.3586C49.5319 13.3767 49.6724 13.5172 49.6724 13.6905V15.8413Z" fill="#2C2C37"/>
<path d="M34.1837 23.1389C34.1837 23.3123 34.3242 23.4528 34.4975 23.4528H34.9034C35.7291 23.4528 36.3205 23.3468 36.6776 23.1348C37.0347 22.9227 37.2132 22.5824 37.2132 22.1138C37.2132 21.6451 37.0347 21.3048 36.6776 21.0928C36.3205 20.8807 35.7291 20.7747 34.9034 20.7747H34.4975C34.3242 20.7747 34.1837 20.9152 34.1837 21.0886V23.1389ZM34.1837 18.0172C34.1837 18.1905 34.3242 18.331 34.4975 18.331H34.7862C35.8128 18.331 36.3261 17.9237 36.3261 17.1092C36.3261 16.2946 35.8128 15.8873 34.7862 15.8873H34.4975C34.3242 15.8873 34.1837 16.0278 34.1837 16.2012V18.0172ZM30.9031 13.6905C30.9031 13.5172 31.0436 13.3767 31.2169 13.3767H35.7905C36.951 13.3767 37.8325 13.6556 38.435 14.2136C39.0376 14.7715 39.3389 15.5749 39.3389 16.6238C39.3389 17.2598 39.2217 17.7898 38.9874 18.2139C38.8798 18.4129 38.7437 18.5976 38.5791 18.7681C38.3804 18.9739 38.4583 19.3818 38.7244 19.487C38.8734 19.5459 39.0113 19.6125 39.138 19.6868C39.4728 19.8653 39.7406 20.0885 39.9414 20.3563C40.1534 20.6241 40.3041 20.9254 40.3934 21.2601C40.4826 21.5949 40.5273 21.952 40.5273 22.3313C40.5273 22.9227 40.4213 23.4472 40.2092 23.9047C40.0084 24.3622 39.7183 24.7472 39.3389 25.0596C38.9707 25.372 38.5187 25.6064 37.9831 25.7626C37.4475 25.9188 36.845 25.9969 36.1755 25.9969H31.2169C31.0436 25.9969 30.9031 25.8564 30.9031 25.6831V13.6905Z" fill="#2C2C37"/>
<path d="M19.5294 10.9541C21.1103 10.305 22.6736 8.73223 23.7579 7.41876C24.0046 7.11997 24.5798 7.34663 24.5354 7.73155C24.3206 9.5977 23.8336 12.094 21.5222 13.744C20.098 14.7606 18.1811 15.3968 17.1952 15.6268C17.0003 15.6723 16.8661 15.8573 16.889 16.0561C17.0473 17.4306 17.1888 20.5106 16.7395 24.505C16.1629 29.6314 13.5139 33.2211 11.6672 34.9264C11.4036 35.1698 11.0163 34.8949 11.1114 34.549C11.471 33.2415 11.8642 31.3378 11.9569 29.6862C12.0576 27.8917 12.0653 26.8698 12.0372 25.9215C12.0264 25.5554 11.5235 25.4274 11.3142 25.728C10.6594 26.6685 9.62716 27.9078 7.97133 29.2876C6.52514 30.4928 4.06697 31.26 2.44434 31.5577C2.12697 31.6159 1.9351 31.2646 2.14794 31.0221C3.73366 29.2152 5.91041 27.1976 7.3001 23.6348C8.00481 21.8281 8.36216 19.0786 8.37433 17.3518C8.3759 17.1296 8.17448 16.9648 7.95574 17.0036C6.87537 17.1954 5.75237 17.4667 3.98579 18.5267C2.69937 19.2985 1.76059 20.1596 1.03229 20.9371C0.767593 21.2197 0.229091 20.9585 0.307544 20.5794C0.632567 19.0086 1.26214 16.9741 3.58723 14.9397C5.42261 13.3337 7.97133 12.5483 11.1598 12.1498C14.3482 11.7512 17.1787 11.9194 19.5294 10.9541Z" fill="#2C2C37"/>
<circle cx="11.1596" cy="8.16383" r="3.18843" fill="#2C2C37"/>
<path d="M17.1012 0.591878C18.0878 -0.0658802 19.212 0.528016 19.8576 1.19982C20.0666 1.41737 20.5167 1.41978 20.731 1.20734C21.3958 0.548128 22.5555 -0.0231291 23.478 0.591877C24.6737 1.38899 23.8766 3.38175 23.0795 4.57742C22.5067 5.43665 21.2478 6.5746 20.5161 7.18239C20.3844 7.29181 20.1948 7.29181 20.0631 7.18239C19.3314 6.5746 18.0725 5.43665 17.4997 4.57742C16.7026 3.38175 15.9055 1.38898 17.1012 0.591878Z" fill="#2C2C37"/>
</g>
<defs>
<clipPath id="clip0_171_7658">
<rect width="253.158" height="35.5676" fill="white"/>
</clipPath>
</defs>
</svg>
